# AST/ASF file generated using VICON BodyLanguage
# -----------------------------------------------
:version 1.10
:name VICON
:units
  mass 1.0
  length 0.45
  angle deg
:documentation
   .ast/.asf automatically generated from VICON data using
   VICON BodyBuilder and BodyLanguage model FoxedUp or BRILLIANT.MOD
:root
   order TX TY TZ RX RY RZ
   axis XYZ
   position 0 0 0  
   orientation 0 0 0 
:bonedata
  begin
     id 1 
     name lhipjoint
     direction 0.521452 -0.77106 0.36545 
     length 2.0933 
     axis 0 0 0  XYZ
  end
  begin
     id 2 
     name lfemur
     direction 0.34202 -0.939693 0  
     length 6.83441  
     axis 0 0 20  XYZ
    dof rx ry rz
    limits (-160.0 20.0)
           (-70.0 70.0)
           (-60.0 70.0)
  end
  begin
     id 3 
     name ltibia
     direction 0.34202 -0.939693 0   
     length 7.28749   
     axis 0 0 20   XYZ
    dof rx
    limits (-10.0 170.0)
  end
  begin
     id 4 
     name lfoot
     direction 0.100608 -0.276418 0.955757   
     length 1.52195   
     axis -90 7.62852e-016 20   XYZ
    dof rx rz
    limits (-45.0 90.0)
           (-70.0 20.0)
  end
  begin
     id 5 
     name ltoes
     direction 1.53558e-011 -4.21907e-011 1   
     length 0.770459   
     axis -90 7.62852e-016 20   XYZ
    dof rx
    limits (-90.0 20.0)
  end
  begin
     id 6 
     name rhipjoint
     direction -0.488071 -0.788702 0.373812   
     length 2.04648  
     axis 0 0 0  XYZ 
  end
  begin
     id 7 
     name rfemur
     direction -0.34202 -0.939693 0   
     length 6.92583   
     axis 0 0 -20   XYZ
    dof rx ry rz
    limits (-160.0 20.0)
           (-70.0 70.0)
           (-70.0 60.0)
  end
  begin
     id 8 
     name rtibia
     direction -0.34202 -0.939693 0   
     length 7.41043   
     axis 0 0 -20   XYZ
    dof rx
    limits (-10.0 170.0)
 end
 begin
     id 9 
     name rfoot
     direction -0.0784433 -0.215521 0.973343   
     length 1.67708  
     axis -90 -7.62852e-016 -20   XYZ
    dof rx rz
    limits (-45.0 90.0)
           (-20.0 70.0)
  end
  begin
     id 10 
     name rtoes
     direction -1.53551e-011 -4.21842e-011 1   
     length 0.849787   
     axis -90 -7.62852e-016 -20   XYZ
    dof rx
    limits (-90.0 20.0)
  end
  begin
     id 11 
     name lowerback
     direction -0.0122332 0.997575 -0.0685192   
     length 1.98724   
     axis 0 0 0   XYZ
    dof rx ry rz
    limits (-20.0 45.0)
           (-30.0 30.0)
           (-30.0 30.0)
  end
  begin
     id 12 
     name upperback
     direction 0.0182347 0.999724 -0.0148421   
     length 1.99029   
     axis 0 0 0   XYZ
    dof rx ry rz
    limits (-20.0 45.0)
           (-30.0 30.0)
           (-30.0 30.0)
  end
  begin
     id 13 
     name thorax
     direction 0.0242908 0.99956 0.0170184   
     length 1.99573   
     axis 0 0 0   XYZ
    dof rx ry rz
    limits (-20.0 45.0)
           (-30.0 30.0)
           (-30.0 30.0)
  end
  begin
     id 14 
     name lowerneck
     direction 0.0654488 0.985533 0.156338   
     length 1.4285   
     axis 0 0 0   XYZ
    dof rx ry rz
    limits (-20.0 45.0)
           (-30.0 30.0)
           (-30.0 30.0)
  end
  begin
     id 15 
     name upperneck
     direction -0.02953 0.998556 -0.0448842   
     length 1.44709   
     axis 0 0 0   XYZ
    dof rx ry rz
    limits (-20.0 45.0)
           (-30.0 30.0)
           (-30.0 30.0)
  end
  begin
     id 16
     name head
     direction -0.0155588 0.999386 -0.0314063  
     length 1.44689  
     axis 0 0 0   XYZ
    dof rx ry rz
    limits (-20.0 45.0)
           (-30.0 30.0)
           (-30.0 30.0)
  end
  begin
     id 17 
     name lclavicle
     direction 0.968229 0.236071 -0.0824755  
     length 3.60593  
     axis 0 0 0   XYZ
    dof ry rz
    limits (-20.0 10.0)
           (0.0 20.0)
  end
  begin
     id 18 
     name lhumerus
     direction 1 -4.48968e-011 7.8138e-029   
     length 5.06035   
     axis 180 -30 -90   XYZ
    dof rx ry rz
    limits (-60.0 90.0)
           (-90.0 90.0)
           (-90.0 90.0)
  end
  begin
     id 19
     name lradius
     direction 1 -4.48967e-011 9.02887e-028   
     length 3.1478   
     axis 180 -30 -90   XYZ
    dof rx
    limits (-10.0 170.0)
  end
  begin
     id 20
     name lwrist
     direction 1 -4.48961e-011 7.20928e-028   
     length 1.5739   
     axis -5.52449e-016 90 90   XYZ
    dof ry
    limits (-180.0 0.0)
 end
  begin
     id 21 
     name lhand
     direction 1 -4.48972e-011 1.44186e-027   
     length 0.606747   
     axis -9.20027e-016 90 90   XYZ
    dof rx rz
    limits (-90.0 90.0)
           (-45.0 45.0)
  end
  begin
     id 22 
     name lfingers
     direction 1 -4.48943e-011 2.88371e-027   
     length 0.489175   
     axis -1.84005e-015 90 90   XYZ
    dof rx
    limits (0.0 90.0)
  end
  begin
     id 23
     name lthumb
     direction 0.707107 -6.34917e-011 0.707107   
     length 0.70236   
     axis -90 45 2.85299e-015   XYZ
    dof rx rz
    limits (-45.0 45.0)
           (-45.0 45.0)
  end
  begin
     id 24 
     name rclavicle
     direction -0.978165 0.207816 0.0022268   
     length 3.35425  
     axis 0 0 0   XYZ 
    dof ry rz
    limits (-10.0 20.0)
           (-20.0 0.0)
  end
  begin
     id 25 
     name rhumerus
     direction -1 -4.48964e-011 -4.02159e-027  
     length 5.12273   
     axis 180 30 90   XYZ
    dof rx ry rz
    limits (-90.0 60.0)
           (-90.0 90.0)
           (-90.0 90.0)
  end
  begin
     id 26 
     name rradius
     direction -1 -4.48966e-011 1.62746e-027   
     length 3.422   
     axis 180 30 90   XYZ
    dof rx
    limits (-10.0 170.0)
  end
  begin
     id 27 
     name rwrist
     direction -1 -4.4896e-011 7.20928e-028   
     length 1.711   
     axis -5.52449e-016 -90 -90   XYZ
    dof ry
    limits (-180.0 0.0)
  end
  begin
     id 28
     name rhand
     direction -1 -4.48979e-011 1.44186e-027   
     length 0.704599   
     axis -9.20027e-016 -90 -90   XYZ
    dof rx rz
    limits (-90.0 90.0)
           (-45.0 45.0)
  end
  begin
     id 29
     name rfingers
     direction -1 -4.48962e-011 2.88371e-027   
     length 0.568066   
     axis -1.84005e-015 -90 -90   XYZ
    dof rx
    limits (0.0 90.0)
  end
  begin
     id 30
     name rthumb
     direction -0.707107 -6.34949e-011 0.707107   
     length 0.815633   
     axis -90 -45 -2.85299e-015   XYZ
    dof rx rz
    limits (-45.0 45.0)
           (-45.0 45.0)
  end
:hierarchy
  begin
    root lhipjoint rhipjoint lowerback
    lhipjoint lfemur
    lfemur ltibia
    ltibia lfoot
    lfoot ltoes
    rhipjoint rfemur
    rfemur rtibia
    rtibia rfoot
    rfoot rtoes
    lowerback upperback
    upperback thorax
    thorax lowerneck lclavicle rclavicle
    lowerneck upperneck
    upperneck head
    lclavicle lhumerus
    lhumerus lradius
    lradius lwrist
    lwrist lhand lthumb
    lhand lfingers
    rclavicle rhumerus
    rhumerus rradius
    rradius rwrist
    rwrist rhand rthumb
    rhand rfingers
  end

#!OML:ASF E:\id_vita\Project 1\Capture day 1\Session 1\Male1.ASF
:FULLY-SPECIFIED
:DEGREES
1
root -33.643 15.934 -1.26941 160.536 88.0927 153.485
lowerback -6.86932 -0.974241 -5.14438
upperback -2.87907 -0.907758 0.549958
thorax 0.962517 -0.389686 3.38945
lowerneck 2.82495 1.11095 2.34894
upperneck -8.37656 1.87672 1.94785
head -3.17277 0.823768 0.154303
rclavicle 5.64207e-015 -7.15625e-015
rhumerus -33.2276 -21.9619 -78.1068
rradius 17.1033
rwrist 17.514
rhand -20.222 34.6714
rfingers 7.12502
rthumb 6.12551 4.77997
lclavicle 5.64207e-015 -7.15625e-015
lhumerus -26.0203 14.6203 84.8743
lradius 11.8875
lwrist -14.7033
lhand -11.7292 46.2672
lfingers 7.12502
lthumb 14.318 75.7535
rfemur -9.10385 3.2451 13.3314
rtibia 21.9731
rfoot -12.5082 -19.7418
rtoes -16.5232
lfemur -11.3791 -1.36955 -19.5654
ltibia 27.2131
lfoot -22.2112 14.6085
ltoes 9.20784
2
root -33.635 15.9257 -1.27004 152.65 88.2057 145.758
lowerback -6.90485 -1.00057 -5.17735
upperback -2.80021 -0.937324 0.467339
thorax 1.06583 -0.409746 3.31909
lowerneck 2.70964 1.02777 2.03647
upperneck -8.26384 1.74297 2.01635
head -3.11576 0.765943 0.236237
rclavicle 5.42309e-015 8.94531e-015
rhumerus -33.1381 -21.9292 -78.218
rradius 17.0303
rwrist 17.8386
rhand -20.1831 34.6648
rfingers 7.12502
rthumb 6.16302 4.77444
lclavicle 5.42309e-015 8.94531e-015
lhumerus -26.0225 14.5381 84.8783
lradius 11.9749
lwrist -14.285
lhand -11.8155 46.1335
lfingers 7.12502
lthumb 14.2348 75.6257
rfemur -9.06134 2.97528 13.0991
rtibia 22.1376
rfoot -12.5564 -19.3829
rtoes -16.952
lfemur -11.11 -1.37532 -19.7868
ltibia 27.1604
lfoot -22.2164 14.7873
ltoes 9.29638
3
root -33.6347 15.9277 -1.26873 149.696 88.1322 142.864
lowerback -6.81028 -1.13187 -5.46137
upperback -2.82454 -1.10346 0.643964
thorax 1.01138 -0.488777 3.65043
lowerneck 2.44815 1.00224 1.28124
upperneck -7.84251 1.66568 2.32237
head -2.93283 0.744267 0.469743
rclavicle -1.05449e-015 -1.0138e-014
rhumerus -33.062 -21.4529 -78.0788
rradius 17.0143
rwrist 17.9574
rhand -19.9275 34.713
rfingers 7.12502
rthumb 6.40978 4.82997
lclavicle -1.05449e-015 -1.0138e-014
lhumerus -26.0845 15.4242 84.8577
lradius 11.9334
lwrist -14.719
lhand -11.7187 46.0975
lfingers 7.12502
lthumb 14.3281 75.583
rfemur -8.95547 2.60474 12.9852
rtibia 22.121
rfoot -12.6094 -19.0745
rtoes -16.958
lfemur -11.0169 -1.32488 -19.9092
ltibia 27.1089
lfoot -22.243 14.6785
ltoes 9.42017
4
root -33.6412 15.93 -1.2626 153.85 88.045 146.898
lowerback -6.81041 -1.16767 -5.47988
upperback -2.89583 -1.15014 0.682298
thorax 0.943512 -0.507457 3.69755
lowerneck 2.37114 0.804208 1.08311
upperneck -7.75608 1.38936 2.3904
head -2.88961 0.611446 0.535116
rclavicle 2.26506e-015 4.02539e-015
rhumerus -33.0471 -21.3111 -78.1045
rradius 17.0531
rwrist 17.7612
rhand -19.6273 34.6756
rfingers 7.12502
rthumb 6.69966 4.80159
lclavicle 2.26506e-015 4.02539e-015
lhumerus -26.0231 15.6941 84.78
lradius 11.9073
lwrist -15.0666
lhand -11.579 46.3302
lfingers 7.12502
lthumb 14.4626 75.8062
rfemur -9.1049 2.86802 13.0879
rtibia 22.1159
rfoot -12.5601 -19.4449
rtoes -16.5187
lfemur -11.1998 -1.14485 -19.7846
ltibia 27.1082
lfoot -22.3105 14.3524
ltoes 9.50681
5
root -33.6458 15.9434 -1.25731 157.612 87.9385 150.408
lowerback -6.96846 -1.18545 -5.39004
upperback -2.98228 -1.16684 0.612815
thorax 0.94081 -0.512876 3.57195
lowerneck 2.49812 0.510847 1.18303
upperneck -7.93842 0.997555 2.23688
head -2.97032 0.416231 0.481306
rclavicle 3.39642e-015 4.17448e-015
rhumerus -33.0237 -21.414 -78.2399
rradius 17.0644
rwrist 17.5975
rhand -19.7335 34.5546
rfingers 7.12502
rthumb 6.59711 4.67739
lclavicle 3.39642e-015 4.17448e-015
lhumerus -25.9403 15.0795 84.8977
lradius 12.0099
lwrist -14.639
lhand -11.6149 46.4712
lfingers 7.12502
lthumb 14.4281 75.9497
rfemur -9.31362 2.93996 13.1994
rtibia 22.1214
rfoot -13.1553 -19.493
rtoes -14.8042
lfemur -11.5001 -0.994321 -19.6772
ltibia 27.065
lfoot -22.3402 14.0166
ltoes 9.31333
6
root -33.6413 15.9318 -1.26021 156.086 87.9793 149.09
lowerback -6.90777 -1.10445 -5.12943
upperback -2.88915 -1.07646 0.406535
thorax 0.987045 -0.474553 3.21849
lowerneck 2.62029 0.236732 1.21023
upperneck -8.11796 0.639283 2.22616
head -3.0521 0.235608 0.485703
rclavicle -1.28899e-015 -1.59028e-015
rhumerus -32.9953 -21.7572 -78.3885
rradius 16.9753
rwrist 17.7519
rhand -20.2257 34.3846
rfingers 7.12502
rthumb 6.12192 4.49303
lclavicle -1.28899e-015 -1.59028e-015
lhumerus -25.8677 13.8735 85.1001
lradius 12.2227
lwrist -13.5752
lhand -11.5836 46.5528
lfingers 7.12502
lthumb 14.4582 76.0291
rfemur -9.08688 3.04022 13.1504
rtibia 22.0391
rfoot -12.5262 -19.618
rtoes -16.0592
lfemur -11.2656 -1.22367 -19.7342
ltibia 27.111
lfoot -22.3298 14.2913
ltoes 10.2859
